<svg width="1280" height="520" viewBox="0 0 1280 520" fill="none" xmlns="http://www.w3.org/2000/svg">
  <rect width="1280" height="520" rx="28" fill="#0F172A"/>
  <rect x="48" y="48" width="1184" height="424" rx="24" fill="#111827" stroke="#334155"/>
  <text x="84" y="118" fill="#93C5FD" font-family="Segoe UI, Arial, sans-serif" font-size="24" font-weight="700">AUDITSYSTEMS</text>
  <text x="84" y="174" fill="white" font-family="Segoe UI, Arial, sans-serif" font-size="42" font-weight="800">Technical SEO and site audit platform</text>
  <text x="84" y="224" fill="#CBD5E1" font-family="Segoe UI, Arial, sans-serif" font-size="22">Actionable reporting, lead-driven conversion, bilingual UX, and production visibility.</text>
  <rect x="84" y="274" width="190" height="46" rx="12" fill="#1D4ED8"/>
  <text x="116" y="304" fill="white" font-family="Segoe UI, Arial, sans-serif" font-size="18" font-weight="700">SEO</text>
  <rect x="292" y="274" width="190" height="46" rx="12" fill="#0F766E"/>
  <text x="322" y="304" fill="white" font-family="Segoe UI, Arial, sans-serif" font-size="18" font-weight="700">Security</text>
  <rect x="500" y="274" width="220" height="46" rx="12" fill="#7C3AED"/>
  <text x="534" y="304" fill="white" font-family="Segoe UI, Arial, sans-serif" font-size="18" font-weight="700">Performance</text>
  <rect x="870" y="116" width="290" height="224" rx="18" fill="#020617" stroke="#1E293B"/>
  <rect x="896" y="148" width="130" height="12" rx="6" fill="#22C55E"/>
  <rect x="896" y="182" width="212" height="10" rx="5" fill="#DBEAFE"/>
  <rect x="896" y="212" width="226" height="10" rx="5" fill="#94A3B8"/>
  <rect x="896" y="242" width="180" height="10" rx="5" fill="#475569"/>
  <rect x="896" y="282" width="156" height="18" rx="9" fill="#0F766E"/>
  <text x="912" y="296" fill="white" font-family="Segoe UI, Arial, sans-serif" font-size="11" font-weight="800">READYNESS</text>
  <text x="84" y="384" fill="#E2E8F0" font-family="Segoe UI, Arial, sans-serif" font-size="18">Live: audit.alirezasafaeisystems.ir</text>
</svg>
